<svg id="Capa_1" enable-background="new 0 0 512 512" height="512" viewBox="0 0 512 512" width="512" xmlns="http://www.w3.org/2000/svg"><g><path d="m270 242v210l-30 15h-210l-30-15v-210l30-15h210z" fill="#ff7f40"/><path d="m270 242v210l-30 15h-105v-240h105z" fill="#f25a3c"/><path d="m270 227v15h-270v-15c0-36.301 25.8-67.599 60-74.5v-61.5h150v61.5c34.2 6.901 60 38.199 60 74.5z" fill="#f3f5f9"/><path d="m0 452h270v60h-270z" fill="#f3f5f9"/><path d="m270 227v15h-135v-151h75v61.5c34.2 6.901 60 38.199 60 74.5z" fill="#e1e6f0"/><path d="m482 392h-61l-30 30 30 45 31-15h30c16.569 0 30-13.431 30-30s-13.431-30-30-30z" fill="#6cf"/><path d="m452 452h30c16.569 0 30-13.431 30-30h-121l30 45z" fill="#59abff"/><path d="m360 392c-16.569 0-30 13.431-30 30s13.431 30 30 30l17.172 15h43.828v-45-30z" fill="#f3f5f9"/><path d="m360 452 17.172 15h43.828v-45h-91c0 16.569 13.431 30 30 30z" fill="#e1e6f0"/><path d="m452 452h-61l-31 30 31 30h61c16.569 0 30-13.431 30-30s-13.431-30-30-30z" fill="#f3f5f9"/><path d="m452 512c16.569 0 30-13.431 30-30h-122l31 30z" fill="#e1e6f0"/><path d="m330 452c-16.569 0-30 13.431-30 30s13.431 30 30 30h61v-30-30z" fill="#ff7f40"/><path d="m330 512h61v-30h-91c0 16.569 13.431 30 30 30z" fill="#f25a3c"/><path d="m135 452h135v60h-135z" fill="#e1e6f0"/><path d="m30 0h210v121h-210z" fill="#515866"/><g fill="#353d4d"><path d="m135 0h105v121h-105z"/><path d="m60 30h30v61h-30z"/><path d="m120 30h30v61h-30z"/></g><path d="m180 30h30v61h-30z" fill="#1e2533"/><path d="m135 30h15v61h-15z" fill="#1e2533"/><path d="m180 332v30h-30v30h-30v-30h-30v-30h30v-30h30v30z" fill="#f3f5f9"/><path d="m150 392h-15v-90h15v30h30v30h-30z" fill="#e1e6f0"/></g></svg>