<svg id="Capa_1" enable-background="new 0 0 512 512" height="512" viewBox="0 0 512 512" width="512" xmlns="http://www.w3.org/2000/svg"><g><path d="m473.62 0v149.3l-217.62 16.13-217.62-16.13v-72.54l217.62-76.76z" fill="#455da0"/><path d="m473.62 0v149.3l-217.62 16.13v-165.43z" fill="#214070"/><path d="m384.35 59.532h30.32v30.236h-30.32z" fill="#0174f9"/><path d="m314.95 59.532h30.32v30.236h-30.32z" fill="#0174f9"/><path d="m38.38 149.3h435.24v362.7h-435.24z" fill="#eef7fe"/><path d="m256 149.3h217.62v362.7h-217.62z" fill="#c0defe"/><path d="m340.62 399.06c-19.94 24.64-50.44 40.4-84.62 40.4-60.1 0-108.81-48.72-108.81-108.82 0-60.09 48.71-108.81 108.81-108.81 34.18 0 64.68 15.77 84.62 40.41 15.13 18.68 15.13 118.12 0 136.82z" fill="#455da0"/><path d="m340.62 399.06c-19.94 24.64-50.44 40.4-84.62 40.4v-217.63c34.18 0 64.68 15.77 84.62 40.41 15.13 18.68 15.13 118.12 0 136.82z" fill="#214070"/><ellipse cx="256" cy="330.65" fill="#00b3ff" rx="36.27" ry="36.27" transform="matrix(.924 -.383 .383 .924 -107.047 123.136)"/><path d="m292.27 330.65c0 20.03-16.24 36.27-36.27 36.27v-72.54c20.03 0 36.27 16.24 36.27 36.27z" fill="#0174f9"/><path d="m364.81 330.643c0 25.922-9.061 49.718-24.189 68.414-28.17-9.958-48.348-36.828-48.348-68.414 0-31.577 20.178-58.437 48.348-68.404 15.128 18.686 24.189 42.492 24.189 68.404z" fill="#fdb504"/><path d="m256 0v40.486c0 20.026-16.237 36.273-36.273 36.273h-181.347v-76.759z" fill="#00b3ff"/></g></svg>